<?xml version="1.0" encoding="utf-8" standalone="no"?>
<!DOCTYPE svg PUBLIC "-//W3C//DTD SVG 1.1//EN"
  "http://www.w3.org/Graphics/SVG/1.1/DTD/svg11.dtd">
<svg height="345.6pt" version="1.1" viewBox="0 0 460.8 345.6" width="460.8pt" xmlns="http://www.w3.org/2000/svg" xmlns:xlink="http://www.w3.org/1999/xlink">
 <metadata>
  <rdf:RDF xmlns:cc="http://creativecommons.org/ns#" xmlns:dc="http://purl.org/dc/elements/1.1/" xmlns:rdf="http://www.w3.org/1999/02/22-rdf-syntax-ns#">
   <cc:Work>
    <dc:type rdf:resource="http://purl.org/dc/dcmitype/StillImage"/>
    <dc:date>2021-09-28T15:50:44.743828</dc:date>
    <dc:format>image/svg+xml</dc:format>
    <dc:creator>
     <cc:Agent>
      <dc:title>Matplotlib v3.4.2, https://matplotlib.org/</dc:title>
     </cc:Agent>
    </dc:creator>
   </cc:Work>
  </rdf:RDF>
 </metadata>
 <defs>
  <style type="text/css">*{stroke-linecap:butt;stroke-linejoin:round;}</style>
 </defs>
 <g id="figure_1">
  <g id="patch_1">
   <path d="M 0 345.6 
L 460.8 345.6 
L 460.8 0 
L 0 0 
z
" style="fill:#ffffff;"/>
  </g>
  <g id="axes_1">
   <g id="patch_2">
    <path d="M 57.6 307.584 
L 414.72 307.584 
L 414.72 41.472 
L 57.6 41.472 
z
" style="fill:#ffffff;"/>
   </g>
   <g id="matplotlib.axis_1">
    <g id="xtick_1">
     <g id="line2d_1">
      <defs>
       <path d="M 0 0 
L 0 3.5 
" id="m067b1d4a02" style="stroke:#000000;stroke-width:0.8;"/>
      </defs>
      <g>
       <use style="stroke:#000000;stroke-width:0.8;" x="73.832727" xlink:href="#m067b1d4a02" y="307.584"/>
      </g>
     </g>
     <g id="text_1">
      <!-- 0 -->
      <g transform="translate(70.651477 322.182437)scale(0.1 -0.1)">
       <defs>
        <path d="M 2034 4250 
Q 1547 4250 1301 3770 
Q 1056 3291 1056 2328 
Q 1056 1369 1301 889 
Q 1547 409 2034 409 
Q 2525 409 2770 889 
Q 3016 1369 3016 2328 
Q 3016 3291 2770 3770 
Q 2525 4250 2034 4250 
z
M 2034 4750 
Q 2819 4750 3233 4129 
Q 3647 3509 3647 2328 
Q 3647 1150 3233 529 
Q 2819 -91 2034 -91 
Q 1250 -91 836 529 
Q 422 1150 422 2328 
Q 422 3509 836 4129 
Q 1250 4750 2034 4750 
z
" id="DejaVuSans-30" transform="scale(0.015625)"/>
       </defs>
       <use xlink:href="#DejaVuSans-30"/>
      </g>
     </g>
    </g>
    <g id="xtick_2">
     <g id="line2d_2">
      <g>
       <use style="stroke:#000000;stroke-width:0.8;" x="138.893758" xlink:href="#m067b1d4a02" y="307.584"/>
      </g>
     </g>
     <g id="text_2">
      <!-- 100 -->
      <g transform="translate(129.350008 322.182437)scale(0.1 -0.1)">
       <defs>
        <path d="M 794 531 
L 1825 531 
L 1825 4091 
L 703 3866 
L 703 4441 
L 1819 4666 
L 2450 4666 
L 2450 531 
L 3481 531 
L 3481 0 
L 794 0 
L 794 531 
z
" id="DejaVuSans-31" transform="scale(0.015625)"/>
       </defs>
       <use xlink:href="#DejaVuSans-31"/>
       <use x="63.623047" xlink:href="#DejaVuSans-30"/>
       <use x="127.246094" xlink:href="#DejaVuSans-30"/>
      </g>
     </g>
    </g>
    <g id="xtick_3">
     <g id="line2d_3">
      <g>
       <use style="stroke:#000000;stroke-width:0.8;" x="203.95479" xlink:href="#m067b1d4a02" y="307.584"/>
      </g>
     </g>
     <g id="text_3">
      <!-- 200 -->
      <g transform="translate(194.41104 322.182437)scale(0.1 -0.1)">
       <defs>
        <path d="M 1228 531 
L 3431 531 
L 3431 0 
L 469 0 
L 469 531 
Q 828 903 1448 1529 
Q 2069 2156 2228 2338 
Q 2531 2678 2651 2914 
Q 2772 3150 2772 3378 
Q 2772 3750 2511 3984 
Q 2250 4219 1831 4219 
Q 1534 4219 1204 4116 
Q 875 4013 500 3803 
L 500 4441 
Q 881 4594 1212 4672 
Q 1544 4750 1819 4750 
Q 2544 4750 2975 4387 
Q 3406 4025 3406 3419 
Q 3406 3131 3298 2873 
Q 3191 2616 2906 2266 
Q 2828 2175 2409 1742 
Q 1991 1309 1228 531 
z
" id="DejaVuSans-32" transform="scale(0.015625)"/>
       </defs>
       <use xlink:href="#DejaVuSans-32"/>
       <use x="63.623047" xlink:href="#DejaVuSans-30"/>
       <use x="127.246094" xlink:href="#DejaVuSans-30"/>
      </g>
     </g>
    </g>
    <g id="xtick_4">
     <g id="line2d_4">
      <g>
       <use style="stroke:#000000;stroke-width:0.8;" x="269.015821" xlink:href="#m067b1d4a02" y="307.584"/>
      </g>
     </g>
     <g id="text_4">
      <!-- 300 -->
      <g transform="translate(259.472071 322.182437)scale(0.1 -0.1)">
       <defs>
        <path d="M 2597 2516 
Q 3050 2419 3304 2112 
Q 3559 1806 3559 1356 
Q 3559 666 3084 287 
Q 2609 -91 1734 -91 
Q 1441 -91 1130 -33 
Q 819 25 488 141 
L 488 750 
Q 750 597 1062 519 
Q 1375 441 1716 441 
Q 2309 441 2620 675 
Q 2931 909 2931 1356 
Q 2931 1769 2642 2001 
Q 2353 2234 1838 2234 
L 1294 2234 
L 1294 2753 
L 1863 2753 
Q 2328 2753 2575 2939 
Q 2822 3125 2822 3475 
Q 2822 3834 2567 4026 
Q 2313 4219 1838 4219 
Q 1578 4219 1281 4162 
Q 984 4106 628 3988 
L 628 4550 
Q 988 4650 1302 4700 
Q 1616 4750 1894 4750 
Q 2613 4750 3031 4423 
Q 3450 4097 3450 3541 
Q 3450 3153 3228 2886 
Q 3006 2619 2597 2516 
z
" id="DejaVuSans-33" transform="scale(0.015625)"/>
       </defs>
       <use xlink:href="#DejaVuSans-33"/>
       <use x="63.623047" xlink:href="#DejaVuSans-30"/>
       <use x="127.246094" xlink:href="#DejaVuSans-30"/>
      </g>
     </g>
    </g>
    <g id="xtick_5">
     <g id="line2d_5">
      <g>
       <use style="stroke:#000000;stroke-width:0.8;" x="334.076852" xlink:href="#m067b1d4a02" y="307.584"/>
      </g>
     </g>
     <g id="text_5">
      <!-- 400 -->
      <g transform="translate(324.533102 322.182437)scale(0.1 -0.1)">
       <defs>
        <path d="M 2419 4116 
L 825 1625 
L 2419 1625 
L 2419 4116 
z
M 2253 4666 
L 3047 4666 
L 3047 1625 
L 3713 1625 
L 3713 1100 
L 3047 1100 
L 3047 0 
L 2419 0 
L 2419 1100 
L 313 1100 
L 313 1709 
L 2253 4666 
z
" id="DejaVuSans-34" transform="scale(0.015625)"/>
       </defs>
       <use xlink:href="#DejaVuSans-34"/>
       <use x="63.623047" xlink:href="#DejaVuSans-30"/>
       <use x="127.246094" xlink:href="#DejaVuSans-30"/>
      </g>
     </g>
    </g>
    <g id="xtick_6">
     <g id="line2d_6">
      <g>
       <use style="stroke:#000000;stroke-width:0.8;" x="399.137883" xlink:href="#m067b1d4a02" y="307.584"/>
      </g>
     </g>
     <g id="text_6">
      <!-- 500 -->
      <g transform="translate(389.594133 322.182437)scale(0.1 -0.1)">
       <defs>
        <path d="M 691 4666 
L 3169 4666 
L 3169 4134 
L 1269 4134 
L 1269 2991 
Q 1406 3038 1543 3061 
Q 1681 3084 1819 3084 
Q 2600 3084 3056 2656 
Q 3513 2228 3513 1497 
Q 3513 744 3044 326 
Q 2575 -91 1722 -91 
Q 1428 -91 1123 -41 
Q 819 9 494 109 
L 494 744 
Q 775 591 1075 516 
Q 1375 441 1709 441 
Q 2250 441 2565 725 
Q 2881 1009 2881 1497 
Q 2881 1984 2565 2268 
Q 2250 2553 1709 2553 
Q 1456 2553 1204 2497 
Q 953 2441 691 2322 
L 691 4666 
z
" id="DejaVuSans-35" transform="scale(0.015625)"/>
       </defs>
       <use xlink:href="#DejaVuSans-35"/>
       <use x="63.623047" xlink:href="#DejaVuSans-30"/>
       <use x="127.246094" xlink:href="#DejaVuSans-30"/>
      </g>
     </g>
    </g>
    <g id="text_7">
     <!-- Episodes -->
     <g transform="translate(213.917812 335.860562)scale(0.1 -0.1)">
      <defs>
       <path d="M 628 4666 
L 3578 4666 
L 3578 4134 
L 1259 4134 
L 1259 2753 
L 3481 2753 
L 3481 2222 
L 1259 2222 
L 1259 531 
L 3634 531 
L 3634 0 
L 628 0 
L 628 4666 
z
" id="DejaVuSans-45" transform="scale(0.015625)"/>
       <path d="M 1159 525 
L 1159 -1331 
L 581 -1331 
L 581 3500 
L 1159 3500 
L 1159 2969 
Q 1341 3281 1617 3432 
Q 1894 3584 2278 3584 
Q 2916 3584 3314 3078 
Q 3713 2572 3713 1747 
Q 3713 922 3314 415 
Q 2916 -91 2278 -91 
Q 1894 -91 1617 61 
Q 1341 213 1159 525 
z
M 3116 1747 
Q 3116 2381 2855 2742 
Q 2594 3103 2138 3103 
Q 1681 3103 1420 2742 
Q 1159 2381 1159 1747 
Q 1159 1113 1420 752 
Q 1681 391 2138 391 
Q 2594 391 2855 752 
Q 3116 1113 3116 1747 
z
" id="DejaVuSans-70" transform="scale(0.015625)"/>
       <path d="M 603 3500 
L 1178 3500 
L 1178 0 
L 603 0 
L 603 3500 
z
M 603 4863 
L 1178 4863 
L 1178 4134 
L 603 4134 
L 603 4863 
z
" id="DejaVuSans-69" transform="scale(0.015625)"/>
       <path d="M 2834 3397 
L 2834 2853 
Q 2591 2978 2328 3040 
Q 2066 3103 1784 3103 
Q 1356 3103 1142 2972 
Q 928 2841 928 2578 
Q 928 2378 1081 2264 
Q 1234 2150 1697 2047 
L 1894 2003 
Q 2506 1872 2764 1633 
Q 3022 1394 3022 966 
Q 3022 478 2636 193 
Q 2250 -91 1575 -91 
Q 1294 -91 989 -36 
Q 684 19 347 128 
L 347 722 
Q 666 556 975 473 
Q 1284 391 1588 391 
Q 1994 391 2212 530 
Q 2431 669 2431 922 
Q 2431 1156 2273 1281 
Q 2116 1406 1581 1522 
L 1381 1569 
Q 847 1681 609 1914 
Q 372 2147 372 2553 
Q 372 3047 722 3315 
Q 1072 3584 1716 3584 
Q 2034 3584 2315 3537 
Q 2597 3491 2834 3397 
z
" id="DejaVuSans-73" transform="scale(0.015625)"/>
       <path d="M 1959 3097 
Q 1497 3097 1228 2736 
Q 959 2375 959 1747 
Q 959 1119 1226 758 
Q 1494 397 1959 397 
Q 2419 397 2687 759 
Q 2956 1122 2956 1747 
Q 2956 2369 2687 2733 
Q 2419 3097 1959 3097 
z
M 1959 3584 
Q 2709 3584 3137 3096 
Q 3566 2609 3566 1747 
Q 3566 888 3137 398 
Q 2709 -91 1959 -91 
Q 1206 -91 779 398 
Q 353 888 353 1747 
Q 353 2609 779 3096 
Q 1206 3584 1959 3584 
z
" id="DejaVuSans-6f" transform="scale(0.015625)"/>
       <path d="M 2906 2969 
L 2906 4863 
L 3481 4863 
L 3481 0 
L 2906 0 
L 2906 525 
Q 2725 213 2448 61 
Q 2172 -91 1784 -91 
Q 1150 -91 751 415 
Q 353 922 353 1747 
Q 353 2572 751 3078 
Q 1150 3584 1784 3584 
Q 2172 3584 2448 3432 
Q 2725 3281 2906 2969 
z
M 947 1747 
Q 947 1113 1208 752 
Q 1469 391 1925 391 
Q 2381 391 2643 752 
Q 2906 1113 2906 1747 
Q 2906 2381 2643 2742 
Q 2381 3103 1925 3103 
Q 1469 3103 1208 2742 
Q 947 2381 947 1747 
z
" id="DejaVuSans-64" transform="scale(0.015625)"/>
       <path d="M 3597 1894 
L 3597 1613 
L 953 1613 
Q 991 1019 1311 708 
Q 1631 397 2203 397 
Q 2534 397 2845 478 
Q 3156 559 3463 722 
L 3463 178 
Q 3153 47 2828 -22 
Q 2503 -91 2169 -91 
Q 1331 -91 842 396 
Q 353 884 353 1716 
Q 353 2575 817 3079 
Q 1281 3584 2069 3584 
Q 2775 3584 3186 3129 
Q 3597 2675 3597 1894 
z
M 3022 2063 
Q 3016 2534 2758 2815 
Q 2500 3097 2075 3097 
Q 1594 3097 1305 2825 
Q 1016 2553 972 2059 
L 3022 2063 
z
" id="DejaVuSans-65" transform="scale(0.015625)"/>
      </defs>
      <use xlink:href="#DejaVuSans-45"/>
      <use x="63.183594" xlink:href="#DejaVuSans-70"/>
      <use x="126.660156" xlink:href="#DejaVuSans-69"/>
      <use x="154.443359" xlink:href="#DejaVuSans-73"/>
      <use x="206.542969" xlink:href="#DejaVuSans-6f"/>
      <use x="267.724609" xlink:href="#DejaVuSans-64"/>
      <use x="331.201172" xlink:href="#DejaVuSans-65"/>
      <use x="392.724609" xlink:href="#DejaVuSans-73"/>
     </g>
    </g>
   </g>
   <g id="matplotlib.axis_2">
    <g id="ytick_1">
     <g id="line2d_7">
      <defs>
       <path d="M 0 0 
L -3.5 0 
" id="meedefec6a7" style="stroke:#000000;stroke-width:0.8;"/>
      </defs>
      <g>
       <use style="stroke:#000000;stroke-width:0.8;" x="57.6" xlink:href="#meedefec6a7" y="307.584"/>
      </g>
     </g>
     <g id="text_8">
      <!-- −100 -->
      <g transform="translate(23.132812 311.383219)scale(0.1 -0.1)">
       <defs>
        <path d="M 678 2272 
L 4684 2272 
L 4684 1741 
L 678 1741 
L 678 2272 
z
" id="DejaVuSans-2212" transform="scale(0.015625)"/>
       </defs>
       <use xlink:href="#DejaVuSans-2212"/>
       <use x="83.789062" xlink:href="#DejaVuSans-31"/>
       <use x="147.412109" xlink:href="#DejaVuSans-30"/>
       <use x="211.035156" xlink:href="#DejaVuSans-30"/>
      </g>
     </g>
    </g>
    <g id="ytick_2">
     <g id="line2d_8">
      <g>
       <use style="stroke:#000000;stroke-width:0.8;" x="57.6" xlink:href="#meedefec6a7" y="254.3616"/>
      </g>
     </g>
     <g id="text_9">
      <!-- −80 -->
      <g transform="translate(29.495313 258.160819)scale(0.1 -0.1)">
       <defs>
        <path d="M 2034 2216 
Q 1584 2216 1326 1975 
Q 1069 1734 1069 1313 
Q 1069 891 1326 650 
Q 1584 409 2034 409 
Q 2484 409 2743 651 
Q 3003 894 3003 1313 
Q 3003 1734 2745 1975 
Q 2488 2216 2034 2216 
z
M 1403 2484 
Q 997 2584 770 2862 
Q 544 3141 544 3541 
Q 544 4100 942 4425 
Q 1341 4750 2034 4750 
Q 2731 4750 3128 4425 
Q 3525 4100 3525 3541 
Q 3525 3141 3298 2862 
Q 3072 2584 2669 2484 
Q 3125 2378 3379 2068 
Q 3634 1759 3634 1313 
Q 3634 634 3220 271 
Q 2806 -91 2034 -91 
Q 1263 -91 848 271 
Q 434 634 434 1313 
Q 434 1759 690 2068 
Q 947 2378 1403 2484 
z
M 1172 3481 
Q 1172 3119 1398 2916 
Q 1625 2713 2034 2713 
Q 2441 2713 2670 2916 
Q 2900 3119 2900 3481 
Q 2900 3844 2670 4047 
Q 2441 4250 2034 4250 
Q 1625 4250 1398 4047 
Q 1172 3844 1172 3481 
z
" id="DejaVuSans-38" transform="scale(0.015625)"/>
       </defs>
       <use xlink:href="#DejaVuSans-2212"/>
       <use x="83.789062" xlink:href="#DejaVuSans-38"/>
       <use x="147.412109" xlink:href="#DejaVuSans-30"/>
      </g>
     </g>
    </g>
    <g id="ytick_3">
     <g id="line2d_9">
      <g>
       <use style="stroke:#000000;stroke-width:0.8;" x="57.6" xlink:href="#meedefec6a7" y="201.1392"/>
      </g>
     </g>
     <g id="text_10">
      <!-- −60 -->
      <g transform="translate(29.495313 204.938419)scale(0.1 -0.1)">
       <defs>
        <path d="M 2113 2584 
Q 1688 2584 1439 2293 
Q 1191 2003 1191 1497 
Q 1191 994 1439 701 
Q 1688 409 2113 409 
Q 2538 409 2786 701 
Q 3034 994 3034 1497 
Q 3034 2003 2786 2293 
Q 2538 2584 2113 2584 
z
M 3366 4563 
L 3366 3988 
Q 3128 4100 2886 4159 
Q 2644 4219 2406 4219 
Q 1781 4219 1451 3797 
Q 1122 3375 1075 2522 
Q 1259 2794 1537 2939 
Q 1816 3084 2150 3084 
Q 2853 3084 3261 2657 
Q 3669 2231 3669 1497 
Q 3669 778 3244 343 
Q 2819 -91 2113 -91 
Q 1303 -91 875 529 
Q 447 1150 447 2328 
Q 447 3434 972 4092 
Q 1497 4750 2381 4750 
Q 2619 4750 2861 4703 
Q 3103 4656 3366 4563 
z
" id="DejaVuSans-36" transform="scale(0.015625)"/>
       </defs>
       <use xlink:href="#DejaVuSans-2212"/>
       <use x="83.789062" xlink:href="#DejaVuSans-36"/>
       <use x="147.412109" xlink:href="#DejaVuSans-30"/>
      </g>
     </g>
    </g>
    <g id="ytick_4">
     <g id="line2d_10">
      <g>
       <use style="stroke:#000000;stroke-width:0.8;" x="57.6" xlink:href="#meedefec6a7" y="147.9168"/>
      </g>
     </g>
     <g id="text_11">
      <!-- −40 -->
      <g transform="translate(29.495313 151.716019)scale(0.1 -0.1)">
       <use xlink:href="#DejaVuSans-2212"/>
       <use x="83.789062" xlink:href="#DejaVuSans-34"/>
       <use x="147.412109" xlink:href="#DejaVuSans-30"/>
      </g>
     </g>
    </g>
    <g id="ytick_5">
     <g id="line2d_11">
      <g>
       <use style="stroke:#000000;stroke-width:0.8;" x="57.6" xlink:href="#meedefec6a7" y="94.6944"/>
      </g>
     </g>
     <g id="text_12">
      <!-- −20 -->
      <g transform="translate(29.495313 98.493619)scale(0.1 -0.1)">
       <use xlink:href="#DejaVuSans-2212"/>
       <use x="83.789062" xlink:href="#DejaVuSans-32"/>
       <use x="147.412109" xlink:href="#DejaVuSans-30"/>
      </g>
     </g>
    </g>
    <g id="ytick_6">
     <g id="line2d_12">
      <g>
       <use style="stroke:#000000;stroke-width:0.8;" x="57.6" xlink:href="#meedefec6a7" y="41.472"/>
      </g>
     </g>
     <g id="text_13">
      <!-- 0 -->
      <g transform="translate(44.2375 45.271219)scale(0.1 -0.1)">
       <use xlink:href="#DejaVuSans-30"/>
      </g>
     </g>
    </g>
    <g id="text_14">
     <!-- Sum of rewards during episode -->
     <g transform="translate(17.053125 252.52175)rotate(-90)scale(0.1 -0.1)">
      <defs>
       <path d="M 3425 4513 
L 3425 3897 
Q 3066 4069 2747 4153 
Q 2428 4238 2131 4238 
Q 1616 4238 1336 4038 
Q 1056 3838 1056 3469 
Q 1056 3159 1242 3001 
Q 1428 2844 1947 2747 
L 2328 2669 
Q 3034 2534 3370 2195 
Q 3706 1856 3706 1288 
Q 3706 609 3251 259 
Q 2797 -91 1919 -91 
Q 1588 -91 1214 -16 
Q 841 59 441 206 
L 441 856 
Q 825 641 1194 531 
Q 1563 422 1919 422 
Q 2459 422 2753 634 
Q 3047 847 3047 1241 
Q 3047 1584 2836 1778 
Q 2625 1972 2144 2069 
L 1759 2144 
Q 1053 2284 737 2584 
Q 422 2884 422 3419 
Q 422 4038 858 4394 
Q 1294 4750 2059 4750 
Q 2388 4750 2728 4690 
Q 3069 4631 3425 4513 
z
" id="DejaVuSans-53" transform="scale(0.015625)"/>
       <path d="M 544 1381 
L 544 3500 
L 1119 3500 
L 1119 1403 
Q 1119 906 1312 657 
Q 1506 409 1894 409 
Q 2359 409 2629 706 
Q 2900 1003 2900 1516 
L 2900 3500 
L 3475 3500 
L 3475 0 
L 2900 0 
L 2900 538 
Q 2691 219 2414 64 
Q 2138 -91 1772 -91 
Q 1169 -91 856 284 
Q 544 659 544 1381 
z
M 1991 3584 
L 1991 3584 
z
" id="DejaVuSans-75" transform="scale(0.015625)"/>
       <path d="M 3328 2828 
Q 3544 3216 3844 3400 
Q 4144 3584 4550 3584 
Q 5097 3584 5394 3201 
Q 5691 2819 5691 2113 
L 5691 0 
L 5113 0 
L 5113 2094 
Q 5113 2597 4934 2840 
Q 4756 3084 4391 3084 
Q 3944 3084 3684 2787 
Q 3425 2491 3425 1978 
L 3425 0 
L 2847 0 
L 2847 2094 
Q 2847 2600 2669 2842 
Q 2491 3084 2119 3084 
Q 1678 3084 1418 2786 
Q 1159 2488 1159 1978 
L 1159 0 
L 581 0 
L 581 3500 
L 1159 3500 
L 1159 2956 
Q 1356 3278 1631 3431 
Q 1906 3584 2284 3584 
Q 2666 3584 2933 3390 
Q 3200 3197 3328 2828 
z
" id="DejaVuSans-6d" transform="scale(0.015625)"/>
       <path id="DejaVuSans-20" transform="scale(0.015625)"/>
       <path d="M 2375 4863 
L 2375 4384 
L 1825 4384 
Q 1516 4384 1395 4259 
Q 1275 4134 1275 3809 
L 1275 3500 
L 2222 3500 
L 2222 3053 
L 1275 3053 
L 1275 0 
L 697 0 
L 697 3053 
L 147 3053 
L 147 3500 
L 697 3500 
L 697 3744 
Q 697 4328 969 4595 
Q 1241 4863 1831 4863 
L 2375 4863 
z
" id="DejaVuSans-66" transform="scale(0.015625)"/>
       <path d="M 2631 2963 
Q 2534 3019 2420 3045 
Q 2306 3072 2169 3072 
Q 1681 3072 1420 2755 
Q 1159 2438 1159 1844 
L 1159 0 
L 581 0 
L 581 3500 
L 1159 3500 
L 1159 2956 
Q 1341 3275 1631 3429 
Q 1922 3584 2338 3584 
Q 2397 3584 2469 3576 
Q 2541 3569 2628 3553 
L 2631 2963 
z
" id="DejaVuSans-72" transform="scale(0.015625)"/>
       <path d="M 269 3500 
L 844 3500 
L 1563 769 
L 2278 3500 
L 2956 3500 
L 3675 769 
L 4391 3500 
L 4966 3500 
L 4050 0 
L 3372 0 
L 2619 2869 
L 1863 0 
L 1184 0 
L 269 3500 
z
" id="DejaVuSans-77" transform="scale(0.015625)"/>
       <path d="M 2194 1759 
Q 1497 1759 1228 1600 
Q 959 1441 959 1056 
Q 959 750 1161 570 
Q 1363 391 1709 391 
Q 2188 391 2477 730 
Q 2766 1069 2766 1631 
L 2766 1759 
L 2194 1759 
z
M 3341 1997 
L 3341 0 
L 2766 0 
L 2766 531 
Q 2569 213 2275 61 
Q 1981 -91 1556 -91 
Q 1019 -91 701 211 
Q 384 513 384 1019 
Q 384 1609 779 1909 
Q 1175 2209 1959 2209 
L 2766 2209 
L 2766 2266 
Q 2766 2663 2505 2880 
Q 2244 3097 1772 3097 
Q 1472 3097 1187 3025 
Q 903 2953 641 2809 
L 641 3341 
Q 956 3463 1253 3523 
Q 1550 3584 1831 3584 
Q 2591 3584 2966 3190 
Q 3341 2797 3341 1997 
z
" id="DejaVuSans-61" transform="scale(0.015625)"/>
       <path d="M 3513 2113 
L 3513 0 
L 2938 0 
L 2938 2094 
Q 2938 2591 2744 2837 
Q 2550 3084 2163 3084 
Q 1697 3084 1428 2787 
Q 1159 2491 1159 1978 
L 1159 0 
L 581 0 
L 581 3500 
L 1159 3500 
L 1159 2956 
Q 1366 3272 1645 3428 
Q 1925 3584 2291 3584 
Q 2894 3584 3203 3211 
Q 3513 2838 3513 2113 
z
" id="DejaVuSans-6e" transform="scale(0.015625)"/>
       <path d="M 2906 1791 
Q 2906 2416 2648 2759 
Q 2391 3103 1925 3103 
Q 1463 3103 1205 2759 
Q 947 2416 947 1791 
Q 947 1169 1205 825 
Q 1463 481 1925 481 
Q 2391 481 2648 825 
Q 2906 1169 2906 1791 
z
M 3481 434 
Q 3481 -459 3084 -895 
Q 2688 -1331 1869 -1331 
Q 1566 -1331 1297 -1286 
Q 1028 -1241 775 -1147 
L 775 -588 
Q 1028 -725 1275 -790 
Q 1522 -856 1778 -856 
Q 2344 -856 2625 -561 
Q 2906 -266 2906 331 
L 2906 616 
Q 2728 306 2450 153 
Q 2172 0 1784 0 
Q 1141 0 747 490 
Q 353 981 353 1791 
Q 353 2603 747 3093 
Q 1141 3584 1784 3584 
Q 2172 3584 2450 3431 
Q 2728 3278 2906 2969 
L 2906 3500 
L 3481 3500 
L 3481 434 
z
" id="DejaVuSans-67" transform="scale(0.015625)"/>
      </defs>
      <use xlink:href="#DejaVuSans-53"/>
      <use x="63.476562" xlink:href="#DejaVuSans-75"/>
      <use x="126.855469" xlink:href="#DejaVuSans-6d"/>
      <use x="224.267578" xlink:href="#DejaVuSans-20"/>
      <use x="256.054688" xlink:href="#DejaVuSans-6f"/>
      <use x="317.236328" xlink:href="#DejaVuSans-66"/>
      <use x="352.441406" xlink:href="#DejaVuSans-20"/>
      <use x="384.228516" xlink:href="#DejaVuSans-72"/>
      <use x="423.091797" xlink:href="#DejaVuSans-65"/>
      <use x="484.615234" xlink:href="#DejaVuSans-77"/>
      <use x="566.402344" xlink:href="#DejaVuSans-61"/>
      <use x="627.681641" xlink:href="#DejaVuSans-72"/>
      <use x="667.044922" xlink:href="#DejaVuSans-64"/>
      <use x="730.521484" xlink:href="#DejaVuSans-73"/>
      <use x="782.621094" xlink:href="#DejaVuSans-20"/>
      <use x="814.408203" xlink:href="#DejaVuSans-64"/>
      <use x="877.884766" xlink:href="#DejaVuSans-75"/>
      <use x="941.263672" xlink:href="#DejaVuSans-72"/>
      <use x="982.376953" xlink:href="#DejaVuSans-69"/>
      <use x="1010.160156" xlink:href="#DejaVuSans-6e"/>
      <use x="1073.539062" xlink:href="#DejaVuSans-67"/>
      <use x="1137.015625" xlink:href="#DejaVuSans-20"/>
      <use x="1168.802734" xlink:href="#DejaVuSans-65"/>
      <use x="1230.326172" xlink:href="#DejaVuSans-70"/>
      <use x="1293.802734" xlink:href="#DejaVuSans-69"/>
      <use x="1321.585938" xlink:href="#DejaVuSans-73"/>
      <use x="1373.685547" xlink:href="#DejaVuSans-6f"/>
      <use x="1434.867188" xlink:href="#DejaVuSans-64"/>
      <use x="1498.34375" xlink:href="#DejaVuSans-65"/>
     </g>
    </g>
   </g>
   <g id="line2d_13">
    <path clip-path="url(#p639a02db3b)" d="M 76.990326 346.6 
L 77.085779 342.976896 
L 77.284389 346.6 
M 81.068135 346.6 
L 81.640051 338.506214 
L 82.290661 288.583603 
L 82.941272 294.757402 
L 83.591882 249.411917 
L 84.242492 256.064717 
L 84.893103 265.538304 
L 85.543713 244.994458 
L 86.194323 212.688461 
L 86.844934 206.301773 
L 87.495544 246.271795 
L 88.146154 207.792 
L 88.796764 224.610278 
L 89.447375 247.389466 
L 90.097985 184.746701 
L 90.748595 215.243136 
L 91.399206 230.41152 
L 92.049816 200.074752 
L 92.700426 188.04649 
L 93.351037 192.091392 
L 94.001647 162.76585 
L 94.652257 173.463552 
L 95.302868 171.547546 
L 95.953478 167.715533 
L 96.604088 153.930931 
L 97.254698 197.573299 
L 97.905309 187.886822 
L 98.555919 174.581222 
L 99.206529 190.867277 
L 99.85714 143.446118 
L 100.50775 161.914291 
L 101.15836 162.499738 
L 101.808971 154.729267 
L 102.459581 162.712627 
L 103.110191 160.477286 
L 103.760802 166.917197 
L 104.411412 154.835712 
L 105.062022 147.650688 
L 106.363243 120.666931 
L 107.013853 135.249869 
L 107.664463 140.14633 
L 108.315074 190.654387 
L 108.965684 127.319731 
L 109.616294 127.372954 
L 110.266905 162.020736 
L 110.917515 138.709325 
L 111.568125 142.967117 
L 112.218736 150.79081 
L 112.869346 171.015322 
L 113.519956 183.84192 
L 114.170567 132.908083 
L 114.821177 135.196646 
L 115.471787 151.429478 
L 116.122398 125.51017 
L 116.773008 154.35671 
L 117.423618 128.437402 
L 118.074228 148.12969 
L 118.724839 114.227021 
L 119.375449 153.292262 
L 120.026059 143.233229 
L 120.67667 140.412442 
L 121.32728 141.530112 
L 121.97789 140.252774 
L 122.628501 112.098125 
L 123.279111 129.448627 
L 123.929721 117.633254 
L 124.580332 140.14633 
L 125.230942 139.986662 
L 125.881552 128.330957 
L 126.532163 139.614106 
L 127.182773 114.120576 
L 127.833383 158.827392 
L 128.483993 108.479002 
L 129.134604 132.16297 
L 129.785214 104.274432 
L 131.086435 126.148838 
L 131.737045 102.358426 
L 132.387655 115.238246 
L 133.038266 147.224909 
L 133.688876 119.283149 
L 134.339486 122.050714 
L 134.990097 125.935949 
L 135.640707 109.011226 
L 136.941927 132.748416 
L 137.592538 121.624934 
L 138.893758 105.871104 
L 139.544369 113.748019 
L 140.194979 101.293978 
L 140.845589 111.299789 
L 141.4962 116.568806 
L 142.14681 127.851955 
L 142.79742 126.468173 
L 143.448031 122.84905 
L 144.098641 114.173798 
L 144.749251 118.325146 
L 145.399862 140.997888 
L 146.050472 99.271526 
L 146.701082 112.630349 
L 148.002303 142.062336 
L 148.652913 143.765453 
L 149.303523 126.095616 
L 149.954134 121.039488 
L 150.604744 121.891046 
L 151.255354 106.190438 
L 151.905965 110.395008 
L 152.556575 148.12969 
L 153.207185 116.941363 
L 153.857796 125.723059 
L 154.508406 123.434496 
L 155.159016 110.820787 
L 155.809627 128.17129 
L 156.460237 101.772979 
L 157.110847 113.269018 
L 157.761457 119.602483 
L 158.412068 111.140122 
L 159.062678 127.426176 
L 159.713288 103.955098 
L 160.363899 130.566298 
L 161.665119 113.801242 
L 162.31573 104.114765 
L 162.96634 109.33056 
L 163.61695 103.955098 
L 164.267561 111.938458 
L 164.918171 99.590861 
L 165.568781 132.003302 
L 166.219392 105.658214 
L 166.870002 152.174592 
L 167.520612 137.165875 
L 168.171222 108.904781 
L 168.821833 118.804147 
L 169.472443 96.291072 
L 170.123053 113.428685 
L 170.773664 108.851558 
L 171.424274 113.588352 
L 172.074884 129.235738 
L 172.725495 116.036582 
L 173.376105 120.773376 
L 174.026715 118.750925 
L 174.677326 125.244058 
L 175.327936 119.336371 
L 175.978546 117.952589 
L 176.629156 100.814976 
L 177.930377 165.959194 
L 178.580987 130.087296 
L 180.532818 109.596672 
L 181.183429 106.030771 
L 181.834039 106.66944 
L 182.484649 115.238246 
L 183.13526 118.750925 
L 183.78587 110.075674 
L 184.43648 137.112653 
L 185.087091 108.479002 
L 185.737701 111.353011 
L 187.038921 120.773376 
L 187.689532 119.442816 
L 188.340142 121.465267 
L 189.641363 106.66944 
L 190.291973 111.246566 
L 190.942583 124.818278 
L 191.593194 104.327654 
L 192.243804 114.014131 
L 192.894414 115.557581 
L 193.545025 116.568806 
L 194.195635 116.089805 
L 194.846245 96.450739 
L 195.496856 112.523904 
L 196.147466 115.185024 
L 196.798076 107.680666 
L 197.448686 119.815373 
L 198.099297 95.120179 
L 198.749907 111.565901 
L 199.400517 139.294771 
L 200.051128 110.87401 
L 200.701738 118.218701 
L 201.352348 101.932646 
L 202.002959 101.879424 
L 202.653569 113.694797 
L 203.304179 120.933043 
L 203.95479 117.739699 
L 204.6054 107.574221 
L 205.25601 104.327654 
L 205.906621 117.047808 
L 206.557231 109.170893 
L 207.207841 130.087296 
L 207.858451 119.336371 
L 208.509062 103.476096 
L 209.159672 126.468173 
L 209.810282 109.649894 
L 210.460893 106.083994 
L 211.111503 101.027866 
L 211.762113 127.213286 
L 212.412724 129.129293 
L 213.063334 133.014528 
L 213.713944 95.013734 
L 214.364555 180.382464 
L 215.015165 133.919309 
L 215.665775 127.692288 
L 216.316385 112.364237 
L 216.966996 104.540544 
L 217.617606 105.445325 
L 218.268216 108.532224 
L 218.918827 109.437005 
L 219.569437 101.666534 
L 220.220047 105.498547 
L 220.870658 102.837427 
L 221.521268 116.675251 
L 222.171878 100.708531 
L 222.822489 106.350106 
L 223.473099 100.921421 
L 224.123709 123.434496 
L 224.77432 108.958003 
L 225.42493 107.840333 
L 226.07554 119.389594 
L 226.72615 98.68608 
L 227.376761 146.533018 
L 228.027371 100.814976 
L 228.677981 99.910195 
L 229.328592 123.434496 
L 229.979202 118.165478 
L 230.629812 100.814976 
L 231.280423 113.641574 
L 231.931033 102.837427 
L 232.581643 105.817882 
L 233.232254 105.658214 
L 233.882864 137.644877 
L 234.533474 109.170893 
L 235.184085 123.540941 
L 235.834695 115.717248 
L 236.485305 118.963814 
L 237.135915 103.955098 
L 237.786526 115.131802 
L 238.437136 119.76215 
L 239.087746 116.941363 
L 239.738357 135.409536 
L 240.388967 114.43991 
L 241.039577 125.616614 
L 241.690188 127.372954 
L 242.340798 114.173798 
L 242.991408 105.658214 
L 243.642019 115.185024 
L 244.292629 102.67776 
L 244.943239 101.56009 
L 245.59385 129.395405 
L 246.24446 130.40663 
L 246.89507 114.918912 
L 247.54568 107.520998 
L 248.196291 107.680666 
L 248.846901 148.023245 
L 249.497511 121.039488 
L 250.148122 113.694797 
L 250.798732 104.859878 
L 251.449342 110.075674 
L 252.099953 107.414554 
L 252.750563 126.41495 
L 253.401173 124.073165 
L 254.051784 114.173798 
L 254.702394 101.879424 
L 255.353004 108.851558 
L 256.003615 103.263206 
L 256.654225 124.924723 
L 257.304835 124.818278 
L 257.955445 97.940966 
L 259.256666 112.20457 
L 259.907276 107.095219 
L 260.557887 111.033677 
L 261.208497 118.804147 
L 261.859107 120.18793 
L 262.509718 119.017037 
L 263.160328 98.366746 
L 263.810938 107.520998 
L 264.461549 102.730982 
L 265.762769 123.168384 
L 266.413379 135.356314 
L 267.06399 117.846144 
L 267.7146 138.975437 
L 268.36521 108.745114 
L 269.015821 106.45655 
L 269.666431 125.935949 
L 270.317041 119.708928 
L 270.967652 106.775885 
L 271.618262 103.156762 
L 272.268872 126.41495 
L 272.919483 109.809562 
L 273.570093 106.562995 
L 274.220703 126.255283 
L 274.871314 118.64448 
L 275.521924 135.782093 
L 276.172534 122.582938 
L 276.823144 115.77047 
L 277.473755 130.566298 
L 278.774975 99.963418 
L 279.425586 114.014131 
L 280.076196 115.664026 
L 280.726806 114.280243 
L 281.377417 117.52681 
L 282.028027 94.428288 
L 282.678637 114.6528 
L 283.329248 121.891046 
L 283.979858 111.77879 
L 284.630468 110.501453 
L 285.281079 97.036186 
L 285.931689 105.871104 
L 286.582299 101.400422 
L 287.232909 108.904781 
L 287.88352 95.439514 
L 289.18474 143.286451 
L 289.835351 155.314714 
L 290.485961 99.590861 
L 291.136571 130.513075 
L 291.787182 119.070259 
L 292.437792 115.504358 
L 293.088402 115.504358 
L 293.739013 113.162573 
L 294.389623 103.688986 
L 295.040233 101.506867 
L 295.690844 123.381274 
L 296.341454 106.829107 
L 296.992064 128.863181 
L 297.642674 121.944269 
L 298.293285 109.064448 
L 298.943895 109.969229 
L 299.594505 113.748019 
L 300.245116 110.66112 
L 300.895726 110.075674 
L 302.196947 134.82409 
L 302.847557 121.039488 
L 303.498167 102.145536 
L 304.148778 104.806656 
L 304.799388 113.056128 
L 305.449998 110.980454 
L 306.100608 116.036582 
L 306.751219 106.775885 
L 307.401829 100.814976 
L 308.052439 106.722662 
L 308.70305 127.479398 
L 309.35366 97.834522 
L 310.00427 104.114765 
L 310.654881 105.072768 
L 311.305491 130.087296 
L 311.956101 126.84073 
L 312.606712 102.411648 
L 313.257322 108.053222 
L 313.907932 112.364237 
L 314.558543 111.565901 
L 315.209153 107.78711 
L 315.859763 109.809562 
L 317.160984 124.445722 
L 317.811594 107.095219 
L 318.462204 113.641574 
L 319.112815 116.249472 
L 319.763425 101.879424 
L 320.414035 102.784205 
L 321.064646 96.02496 
L 321.715256 99.218304 
L 322.365866 113.588352 
L 323.016477 112.364237 
L 323.667087 99.910195 
L 324.317697 98.153856 
L 324.968308 107.148442 
L 325.618918 101.826202 
L 326.269528 100.22953 
L 326.920138 115.131802 
L 327.570749 118.165478 
L 328.221359 118.538035 
L 328.871969 129.50185 
L 329.52258 104.327654 
L 330.17319 99.80375 
L 330.8238 130.885632 
L 331.474411 97.195853 
L 332.125021 101.613312 
L 332.775631 107.627443 
L 333.426242 111.406234 
L 334.076852 138.81577 
L 334.727462 122.795827 
L 335.378073 118.591258 
L 336.028683 110.44823 
L 336.679293 100.761754 
L 337.329903 103.635763 
L 337.980514 112.364237 
L 338.631124 97.461965 
L 339.281734 107.148442 
L 339.932345 99.431194 
L 340.582955 110.235341 
L 341.233565 107.095219 
L 341.884176 100.708531 
L 342.534786 106.988774 
L 343.185396 115.451136 
L 343.836007 110.554675 
L 344.486617 117.10103 
L 345.137227 107.361331 
L 345.787837 101.027866 
L 346.438448 100.442419 
L 347.089058 112.683571 
L 347.739668 111.140122 
L 348.390279 104.061542 
L 349.040889 114.120576 
L 349.691499 98.89897 
L 350.34211 105.55177 
L 350.99272 105.604992 
L 351.64333 101.027866 
L 352.293941 110.128896 
L 352.944551 100.22953 
L 353.595161 119.921818 
L 354.245772 95.599181 
L 354.896382 95.652403 
L 355.546992 97.35552 
L 356.197602 119.602483 
L 356.848213 98.68608 
L 357.498823 147.012019 
L 358.149433 119.76215 
L 358.800044 98.579635 
L 359.450654 132.641971 
L 360.101264 129.821184 
L 360.751875 108.638669 
L 361.402485 118.43159 
L 362.053095 103.050317 
L 362.703706 106.243661 
L 363.354316 116.888141 
L 364.004926 108.372557 
L 364.655537 123.647386 
L 365.306147 107.308109 
L 365.956757 113.694797 
L 366.607367 123.008717 
L 367.257978 116.675251 
L 367.908588 100.655309 
L 368.559198 111.353011 
L 369.209809 103.79543 
L 369.860419 101.453645 
L 370.511029 111.832013 
L 371.16164 101.879424 
L 371.81225 102.997094 
L 372.46286 119.442816 
L 373.113471 116.728474 
L 373.764081 111.672346 
L 374.414691 102.092314 
L 375.065302 111.193344 
L 375.715912 104.061542 
L 376.366522 110.927232 
L 377.017132 94.48151 
L 377.667743 106.616218 
L 378.318353 103.209984 
L 378.968963 107.840333 
L 379.619574 122.955494 
L 380.270184 109.649894 
L 380.920794 112.151347 
L 381.571405 122.157158 
L 382.222015 95.545958 
L 382.872625 119.97504 
L 383.523236 115.876915 
L 384.173846 118.963814 
L 384.824456 102.67776 
L 385.475066 101.187533 
L 386.125677 113.10935 
L 386.776287 110.554675 
L 387.426897 108.479002 
L 388.077508 101.3472 
L 388.728118 99.431194 
L 389.378728 117.952589 
L 390.029339 104.380877 
L 390.679949 100.176307 
L 391.330559 120.241152 
L 391.98117 110.554675 
L 392.63178 104.593766 
L 393.28239 100.282752 
L 393.933001 111.619123 
L 394.583611 126.893952 
L 395.234221 127.9584 
L 395.884831 106.509773 
L 396.535442 122.370048 
L 397.186052 130.513075 
L 397.836662 113.215795 
L 398.487273 100.814976 
L 398.487273 100.814976 
" style="fill:none;stroke:#1f77b4;stroke-linecap:square;stroke-width:1.5;"/>
   </g>
   <g id="line2d_14">
    <path clip-path="url(#p639a02db3b)" d="M 78.635325 346.6 
L 79.03761 302.634317 
L 79.68822 316.259251 
L 79.895657 346.6 
M 80.730717 346.6 
L 80.989441 303.80521 
L 81.640051 283.953254 
L 82.290661 253.829376 
L 82.909691 346.6 
M 82.980205 346.6 
L 83.591882 272.244326 
L 84.242492 244.621901 
L 85.543713 276.236006 
L 86.194323 252.498816 
L 86.844934 237.543322 
L 87.495544 264.314189 
L 88.146154 283.740365 
L 88.796764 221.523379 
L 89.447375 195.870182 
L 90.097985 185.17248 
L 90.748595 247.389466 
L 91.399206 208.590336 
L 92.049816 252.552038 
L 92.700426 191.505946 
L 93.351037 183.522586 
L 94.001647 171.813658 
L 94.652257 234.935424 
L 95.302868 217.478477 
L 95.953478 196.562074 
L 96.604088 206.514662 
L 97.254698 175.64567 
L 97.905309 172.292659 
L 98.555919 183.84192 
L 99.206529 153.664819 
L 99.85714 152.281037 
L 100.50775 183.575808 
L 101.15836 194.007398 
L 101.808971 169.365427 
L 102.459581 176.124672 
L 103.110191 148.821581 
L 103.760802 139.294771 
L 104.411412 160.264397 
L 105.062022 154.463155 
L 105.712633 161.488512 
L 106.363243 183.788698 
L 107.013853 141.210778 
L 108.315074 165.267302 
L 108.965684 192.517171 
L 109.616294 169.41865 
L 110.266905 188.685158 
L 110.917515 135.249869 
L 111.568125 148.395802 
L 112.218736 202.629427 
L 112.869346 167.236531 
L 113.519956 167.555866 
L 114.170567 180.488909 
L 114.821177 184.746701 
L 115.471787 186.130483 
L 116.122398 153.877709 
L 116.773008 186.769152 
L 117.423618 169.631539 
L 118.074228 142.328448 
L 118.724839 183.469363 
L 119.375449 176.763341 
L 120.026059 147.118464 
L 120.67667 214.923802 
L 121.32728 182.245248 
L 121.97789 121.145933 
L 122.628501 227.803622 
L 123.279111 156.11305 
L 123.929721 172.718438 
L 124.580332 178.040678 
L 125.230942 192.570394 
L 125.881552 164.309299 
L 126.532163 170.908877 
L 127.182773 160.903066 
L 127.833383 181.872691 
L 128.483993 164.362522 
L 129.134604 211.357901 
L 129.785214 232.912973 
L 130.435824 160.157952 
L 131.086435 206.142106 
L 132.387655 161.648179 
L 133.038266 210.027341 
L 133.688876 176.07145 
L 134.339486 222.694272 
L 134.990097 133.06775 
L 136.941927 221.683046 
L 137.592538 140.731776 
L 138.243148 179.956685 
L 138.893758 181.234022 
L 139.544369 170.908877 
L 140.194979 194.167066 
L 140.845589 198.69097 
L 141.4962 144.563789 
L 142.14681 159.412838 
L 142.79742 149.886029 
L 143.448031 189.909274 
L 144.098641 129.980851 
L 144.749251 190.654387 
L 145.399862 183.469363 
L 146.050472 188.578714 
L 146.701082 192.251059 
L 147.351692 213.540019 
L 148.002303 175.752115 
L 148.652913 174.155443 
L 149.303523 193.528397 
L 149.954134 131.577523 
L 150.604744 198.424858 
L 151.255354 130.938854 
L 151.905965 120.986266 
L 152.556575 120.507264 
L 153.207185 120.294374 
L 153.857796 183.895142 
L 154.508406 160.424064 
L 155.159016 220.831488 
L 155.809627 130.83241 
L 156.460237 161.594957 
L 157.110847 177.881011 
L 157.761457 175.166669 
L 158.412068 193.049395 
L 159.062678 159.785395 
L 159.713288 159.519283 
L 160.363899 149.46025 
L 161.014509 233.445197 
L 161.665119 199.542528 
L 162.31573 182.085581 
L 162.96634 177.082675 
L 163.61695 149.194138 
L 164.267561 154.250266 
L 164.918171 173.357107 
L 165.568781 201.032755 
L 166.219392 187.727155 
L 166.870002 211.890125 
L 167.520612 210.027341 
L 168.171222 166.917197 
L 168.821833 166.54464 
L 169.472443 181.925914 
L 170.123053 165.160858 
L 170.773664 153.132595 
L 171.424274 161.328845 
L 172.074884 132.482304 
L 172.725495 168.99287 
L 173.376105 142.115558 
L 174.026715 181.127578 
L 174.677326 137.538432 
L 175.327936 180.222797 
L 175.978546 143.126784 
L 176.629156 164.362522 
L 177.279767 137.219098 
L 177.930377 189.323827 
L 178.580987 188.206157 
L 179.231598 118.85737 
L 179.882208 192.783283 
L 180.532818 135.303091 
L 181.183429 186.343373 
L 181.834039 176.177894 
L 182.484649 208.750003 
L 183.13526 128.011622 
L 183.78587 197.732966 
L 184.43648 176.603674 
L 185.087091 199.915085 
L 185.737701 115.397914 
L 186.388311 227.484288 
L 187.038921 181.925914 
L 187.689532 228.761626 
L 188.340142 209.069338 
L 188.990752 176.763341 
L 189.641363 168.833203 
L 190.291973 181.553357 
L 190.942583 160.10473 
L 191.593194 187.035264 
L 192.243804 200.500531 
L 192.894414 164.788301 
L 193.545025 205.556659 
L 194.195635 156.858163 
L 194.846245 170.163763 
L 195.496856 177.508454 
L 196.147466 170.53632 
L 196.798076 191.559168 
L 197.448686 183.575808 
L 198.099297 172.186214 
L 198.749907 171.281434 
L 199.400517 141.47689 
L 200.051128 142.967117 
L 200.701738 182.617805 
L 201.352348 169.950874 
L 202.002959 165.852749 
L 202.653569 209.867674 
L 203.304179 188.04649 
L 203.95479 200.713421 
L 204.6054 203.427763 
L 205.25601 136.261094 
L 205.906621 221.683046 
L 206.557231 176.284339 
L 207.207841 167.183309 
L 207.858451 183.62903 
L 208.509062 138.336768 
L 209.159672 131.577523 
L 209.810282 148.12969 
L 210.460893 182.671027 
L 211.111503 154.090598 
L 211.762113 226.845619 
L 212.412724 178.30679 
L 213.063334 160.956288 
L 213.713944 231.050189 
L 214.364555 187.567488 
L 215.015165 230.837299 
L 215.665775 217.425254 
L 216.316385 163.031962 
L 216.966996 192.836506 
L 217.617606 181.234022 
L 218.268216 195.178291 
L 218.918827 237.756211 
L 219.569437 129.395405 
L 220.220047 163.777075 
L 220.870658 158.77417 
L 221.521268 239.459328 
L 222.171878 147.810355 
L 222.822489 196.136294 
L 223.473099 142.488115 
L 224.123709 141.743002 
L 224.77432 159.412838 
L 225.42493 220.458931 
L 226.07554 196.136294 
L 226.72615 164.043187 
L 227.376761 206.780774 
L 228.027371 200.447309 
L 228.677981 142.275226 
L 229.328592 165.107635 
L 229.979202 157.550054 
L 230.629812 129.714739 
L 231.280423 169.41865 
L 231.931033 165.480192 
L 232.581643 142.328448 
L 233.232254 194.220288 
L 233.882864 137.431987 
L 234.533474 154.5696 
L 235.184085 164.043187 
L 235.834695 169.791206 
L 236.485305 160.743398 
L 237.135915 146.533018 
L 237.786526 149.087693 
L 238.437136 155.634048 
L 239.087746 165.267302 
L 239.738357 199.648973 
L 240.388967 153.611597 
L 241.039577 193.688064 
L 241.690188 158.880614 
L 242.340798 177.295565 
L 242.991408 159.625728 
L 243.642019 149.03447 
L 244.292629 204.119654 
L 244.943239 182.29847 
L 245.59385 118.165478 
L 246.24446 195.81696 
L 246.89507 180.96791 
L 247.54568 187.886822 
L 248.196291 187.461043 
L 248.846901 142.488115 
L 250.148122 187.194931 
L 250.798732 187.194931 
L 251.449342 183.309696 
L 252.099953 153.611597 
L 252.750563 153.877709 
L 253.401173 202.097203 
L 254.051784 164.468966 
L 254.702394 141.317222 
L 255.353004 225.994061 
L 256.003615 142.38167 
L 256.654225 243.344563 
L 257.304835 204.172877 
L 257.955445 181.500134 
L 258.606056 120.666931 
L 259.256666 152.174592 
L 259.907276 241.747891 
L 260.557887 192.410726 
L 261.208497 223.918387 
L 261.859107 169.20576 
L 262.509718 165.42697 
L 263.160328 164.841523 
L 263.810938 147.9168 
L 264.461549 175.326336 
L 265.112159 175.911782 
L 265.762769 159.945062 
L 266.413379 154.037376 
L 267.06399 221.150822 
L 268.36521 135.782093 
L 269.015821 233.019418 
L 269.666431 183.150029 
L 270.317041 186.982042 
L 270.967652 124.924723 
L 271.618262 129.821184 
L 272.268872 182.830694 
L 272.919483 131.790413 
L 273.570093 130.353408 
L 274.220703 153.824486 
L 274.871314 227.803622 
L 275.521924 197.945856 
L 276.823144 159.67895 
L 278.124365 187.993267 
L 278.774975 175.060224 
L 279.425586 166.012416 
L 280.076196 146.692685 
L 280.726806 187.886822 
L 281.377417 143.871898 
L 282.028027 186.928819 
L 282.678637 153.824486 
L 283.329248 209.548339 
L 283.979858 176.550451 
L 284.630468 268.039757 
L 285.281079 186.449818 
L 285.931689 159.466061 
L 286.582299 166.597862 
L 287.232909 137.804544 
L 287.88352 187.567488 
L 288.53413 164.788301 
L 289.18474 175.432781 
L 289.835351 231.050189 
L 290.485961 188.365824 
L 291.136571 210.825677 
L 291.787182 109.064448 
L 293.088402 223.013606 
L 293.739013 177.561677 
L 294.389623 193.634842 
L 295.040233 169.950874 
L 295.690844 198.903859 
L 296.341454 175.64567 
L 296.992064 166.75753 
L 297.642674 176.763341 
L 298.293285 210.24023 
L 299.594505 159.89184 
L 300.245116 175.113446 
L 300.895726 163.723853 
L 301.546336 137.538432 
L 302.196947 156.379162 
L 302.847557 135.782093 
L 303.498167 199.755418 
L 304.148778 197.999078 
L 304.799388 156.059827 
L 305.449998 203.321318 
L 306.100608 164.947968 
L 306.751219 159.732173 
L 307.401829 163.351296 
L 308.052439 165.320525 
L 308.70305 191.61239 
L 309.35366 160.211174 
L 310.00427 176.231117 
L 310.654881 203.747098 
L 311.305491 169.791206 
L 311.956101 164.628634 
L 312.606712 177.508454 
L 313.257322 148.076467 
L 313.907932 170.216986 
L 314.558543 175.539226 
L 315.209153 228.122957 
L 315.859763 184.108032 
L 316.510373 222.747494 
L 317.160984 149.939251 
L 317.811594 171.760435 
L 318.462204 166.278528 
L 319.112815 148.236134 
L 319.763425 181.659802 
L 320.414035 152.174592 
L 321.064646 113.162573 
L 323.016477 221.204045 
L 323.667087 181.819469 
L 324.317697 240.84311 
L 324.968308 163.88352 
L 325.618918 185.598259 
L 326.269528 172.345882 
L 326.920138 148.289357 
L 327.570749 130.725965 
L 328.221359 143.126784 
L 328.871969 203.58743 
L 329.52258 171.228211 
L 330.17319 165.21408 
L 330.8238 200.287642 
L 331.474411 142.488115 
L 332.125021 174.102221 
L 332.775631 199.702195 
L 333.426242 203.80032 
L 334.076852 193.049395 
L 334.727462 158.933837 
L 335.378073 164.947968 
L 336.028683 136.633651 
L 336.679293 143.71223 
L 337.329903 182.138803 
L 337.980514 199.648973 
L 338.631124 182.777472 
L 339.281734 147.278131 
L 339.932345 142.754227 
L 340.582955 169.844429 
L 341.233565 233.179085 
L 341.884176 162.925517 
L 342.534786 181.659802 
L 343.185396 143.446118 
L 343.836007 212.741683 
L 344.486617 227.643955 
L 345.137227 179.051904 
L 345.787837 143.659008 
L 346.438448 187.8336 
L 347.739668 154.037376 
L 348.390279 170.908877 
L 349.040889 215.935027 
L 349.691499 177.721344 
L 350.34211 216.89303 
L 350.99272 169.897651 
L 351.64333 168.833203 
L 352.293941 143.339674 
L 353.595161 172.07977 
L 354.245772 158.188723 
L 354.896382 204.226099 
L 355.546992 108.585446 
L 356.197602 197.786189 
L 356.848213 171.760435 
L 357.498823 171.760435 
L 358.149433 180.96791 
L 358.800044 181.074355 
L 359.450654 157.550054 
L 360.101264 154.037376 
L 360.751875 178.040678 
L 361.402485 194.007398 
L 362.053095 227.058509 
L 362.703706 131.683968 
L 363.354316 176.337562 
L 364.004926 199.169971 
L 364.655537 148.981248 
L 365.306147 130.83241 
L 365.956757 186.50304 
L 366.607367 205.396992 
L 367.257978 197.520077 
L 367.908588 151.003699 
L 368.559198 199.329638 
L 369.209809 180.701798 
L 369.860419 154.942157 
L 370.511029 214.391578 
L 371.16164 132.16297 
L 371.81225 170.53632 
L 372.46286 151.642368 
L 373.113471 176.497229 
L 373.764081 207.100109 
L 374.414691 198.371635 
L 375.065302 142.168781 
L 375.715912 140.625331 
L 376.366522 163.617408 
L 377.667743 176.763341 
L 378.318353 148.289357 
L 379.619574 188.206157 
L 380.270184 158.614502 
L 380.920794 186.236928 
L 382.222015 153.771264 
L 382.872625 119.549261 
L 383.523236 204.971213 
L 384.173846 198.69097 
L 384.824456 187.673933 
L 385.475066 164.149632 
L 386.125677 224.344166 
L 386.776287 210.719232 
L 387.426897 165.639859 
L 388.077508 141.104333 
L 388.728118 163.777075 
L 389.378728 191.878502 
L 390.029339 187.514266 
L 390.679949 171.121766 
L 391.330559 146.479795 
L 391.98117 137.219098 
L 392.63178 159.253171 
L 393.28239 204.332544 
L 393.933001 234.19031 
L 395.234221 152.600371 
L 395.884831 177.774566 
L 396.535442 175.698893 
L 397.186052 149.300582 
L 398.487273 194.539622 
L 398.487273 194.539622 
" style="fill:none;stroke:#ff7f0e;stroke-linecap:square;stroke-width:1.5;"/>
   </g>
   <g id="line2d_15">
    <path clip-path="url(#p639a02db3b)" d="M 76.960096 346.6 
L 77.085779 335.259648 
L 77.736389 296.566963 
L 78.386999 318.175258 
L 79.03761 323.33783 
L 79.68822 281.345357 
L 80.33883 279.908352 
L 80.989441 318.973594 
L 81.640051 266.230195 
L 82.941272 231.582413 
L 84.242492 205.609882 
L 84.893103 197.14752 
L 85.543713 198.47808 
L 86.194323 207.100109 
L 86.844934 203.480986 
L 87.495544 171.334656 
L 88.146154 151.90848 
L 88.796764 212.422349 
L 89.447375 166.970419 
L 90.097985 185.864371 
L 90.748595 179.956685 
L 91.399206 157.44361 
L 92.049816 181.446912 
L 92.700426 155.048602 
L 93.351037 171.547546 
L 94.001647 151.003699 
L 94.652257 151.003699 
L 95.302868 161.169178 
L 95.953478 158.188723 
L 96.604088 163.457741 
L 97.254698 128.703514 
L 97.905309 166.384973 
L 98.555919 136.420762 
L 99.206529 122.742605 
L 99.85714 129.661517 
L 100.50775 126.361728 
L 101.15836 130.087296 
L 101.808971 139.028659 
L 102.459581 121.624934 
L 103.110191 113.960909 
L 103.760802 119.442816 
L 104.411412 156.166272 
L 105.062022 120.400819 
L 105.712633 128.490624 
L 106.363243 106.616218 
L 107.013853 105.179213 
L 107.664463 113.907686 
L 108.315074 130.992077 
L 109.616294 109.011226 
L 110.266905 104.167987 
L 110.917515 113.694797 
L 111.568125 94.321843 
L 112.218736 110.66112 
L 112.869346 99.910195 
L 113.519956 119.97504 
L 114.170567 113.215795 
L 114.821177 116.409139 
L 115.471787 93.842842 
L 116.122398 106.509773 
L 116.773008 106.350106 
L 117.423618 107.627443 
L 118.074228 104.593766 
L 118.724839 95.971738 
L 119.375449 102.145536 
L 120.026059 133.174195 
L 120.67667 108.585446 
L 121.32728 101.240755 
L 121.97789 98.68608 
L 122.628501 105.711437 
L 123.279111 88.0416 
L 123.929721 94.6944 
L 124.580332 118.059034 
L 126.532163 98.47319 
L 127.182773 105.179213 
L 127.833383 99.644083 
L 128.483993 88.999603 
L 129.134604 100.442419 
L 129.785214 104.540544 
L 130.435824 89.37216 
L 131.086435 99.590861 
L 131.737045 99.377971 
L 132.387655 100.442419 
L 133.038266 98.68608 
L 133.688876 106.083994 
L 134.339486 99.111859 
L 134.990097 94.055731 
L 135.640707 104.700211 
L 136.291317 94.268621 
L 136.941927 89.106048 
L 137.592538 87.988378 
L 138.243148 104.806656 
L 138.893758 95.013734 
L 139.544369 101.453645 
L 140.194979 105.019546 
L 140.845589 106.030771 
L 141.4962 99.431194 
L 142.14681 88.839936 
L 142.79742 109.11767 
L 143.448031 89.318938 
L 144.098641 110.288563 
L 144.749251 93.629952 
L 145.399862 92.618726 
L 146.050472 103.476096 
L 146.701082 93.36384 
L 147.351692 86.817485 
L 148.002303 100.22953 
L 148.652913 100.01664 
L 149.303523 103.263206 
L 149.954134 92.086502 
L 150.604744 104.753434 
L 151.255354 89.15927 
L 151.905965 92.459059 
L 152.556575 105.33888 
L 153.207185 98.313523 
L 153.857796 103.848653 
L 154.508406 90.010829 
L 155.159016 104.593766 
L 155.809627 111.619123 
L 156.460237 93.204173 
L 157.110847 104.966323 
L 157.761457 99.058637 
L 158.412068 109.277338 
L 159.062678 94.162176 
L 159.713288 113.375462 
L 160.363899 98.579635 
L 161.014509 98.792525 
L 161.665119 87.243264 
L 162.31573 97.834522 
L 162.96634 87.775488 
L 163.61695 94.268621 
L 164.267561 88.094822 
L 164.918171 110.182118 
L 165.568781 118.325146 
L 166.219392 104.061542 
L 166.870002 99.324749 
L 167.520612 103.955098 
L 168.171222 121.944269 
L 168.821833 103.635763 
L 170.123053 104.540544 
L 170.773664 102.67776 
L 171.424274 90.70272 
L 172.074884 98.313523 
L 172.725495 93.044506 
L 173.376105 99.431194 
L 174.026715 108.691891 
L 174.677326 88.839936 
L 175.327936 85.912704 
L 175.978546 97.887744 
L 176.629156 97.728077 
L 177.279767 104.434099 
L 177.930377 92.938061 
L 178.580987 86.019149 
L 179.231598 98.419968 
L 180.532818 115.876915 
L 181.183429 105.179213 
L 181.834039 87.349709 
L 183.13526 98.579635 
L 183.78587 93.896064 
L 184.43648 103.529318 
L 185.087091 102.624538 
L 185.737701 110.714342 
L 186.388311 98.632858 
L 187.038921 109.064448 
L 187.689532 98.526413 
L 188.340142 108.479002 
L 188.990752 91.767168 
L 189.641363 87.402931 
L 190.291973 114.6528 
L 190.942583 99.218304 
L 191.593194 86.92393 
L 192.243804 104.593766 
L 192.894414 92.405837 
L 193.545025 99.590861 
L 194.195635 98.792525 
L 194.846245 98.207078 
L 195.496856 86.71104 
L 196.147466 108.851558 
L 196.798076 88.893158 
L 197.448686 92.352614 
L 198.099297 91.022054 
L 198.749907 92.618726 
L 199.400517 91.234944 
L 200.051128 87.562598 
L 200.701738 86.232038 
L 201.352348 103.422874 
L 202.002959 104.061542 
L 202.653569 110.288563 
L 203.304179 88.680269 
L 203.95479 103.529318 
L 204.6054 104.327654 
L 205.25601 85.806259 
L 205.906621 91.554278 
L 206.557231 98.579635 
L 207.207841 91.341389 
L 207.858451 97.621632 
L 208.509062 114.227021 
L 209.159672 111.459456 
L 209.810282 86.49815 
L 210.460893 92.352614 
L 211.111503 102.251981 
L 211.762113 91.767168 
L 212.412724 103.050317 
L 213.063334 93.310618 
L 213.713944 99.856973 
L 214.364555 92.778394 
L 215.015165 92.139725 
L 215.665775 87.615821 
L 216.316385 86.125594 
L 216.966996 98.419968 
L 217.617606 102.67776 
L 218.268216 91.554278 
L 218.918827 103.635763 
L 219.569437 92.991283 
L 220.220047 91.873613 
L 220.870658 93.044506 
L 221.521268 103.476096 
L 222.171878 94.534733 
L 222.822489 95.971738 
L 223.473099 114.493133 
L 224.123709 87.296486 
L 224.77432 103.582541 
L 225.42493 86.338483 
L 226.07554 108.532224 
L 226.72615 103.156762 
L 227.376761 87.881933 
L 228.027371 97.887744 
L 228.677981 91.288166 
L 229.328592 92.405837 
L 229.979202 86.604595 
L 230.629812 101.719757 
L 231.280423 102.145536 
L 231.931033 97.887744 
L 232.581643 97.515187 
L 233.232254 93.57673 
L 233.882864 109.862784 
L 234.533474 108.798336 
L 235.184085 86.285261 
L 235.834695 97.621632 
L 236.485305 99.111859 
L 237.135915 92.938061 
L 237.786526 107.946778 
L 238.437136 113.215795 
L 239.738357 93.204173 
L 240.388967 97.674854 
L 241.039577 93.470285 
L 241.690188 98.419968 
L 242.340798 108.904781 
L 242.991408 102.89065 
L 243.642019 108.798336 
L 244.292629 91.128499 
L 244.943239 102.624538 
L 245.59385 91.926835 
L 246.24446 95.865293 
L 246.89507 112.843238 
L 247.54568 99.005414 
L 248.196291 96.929741 
L 248.846901 91.128499 
L 249.497511 87.669043 
L 250.148122 113.854464 
L 250.798732 109.437005 
L 251.449342 97.940966 
L 252.099953 94.108954 
L 252.750563 113.162573 
L 253.401173 102.358426 
L 254.051784 87.881933 
L 255.353004 97.408742 
L 256.654225 109.383782 
L 257.304835 98.419968 
L 258.606056 108.958003 
L 259.256666 87.243264 
L 259.907276 97.461965 
L 260.557887 104.487322 
L 261.208497 86.178816 
L 261.859107 98.207078 
L 262.509718 86.817485 
L 263.160328 87.136819 
L 263.810938 97.515187 
L 264.461549 97.621632 
L 265.112159 99.005414 
L 265.762769 97.195853 
L 266.413379 114.918912 
L 267.06399 97.674854 
L 267.7146 91.767168 
L 268.36521 92.299392 
L 269.015821 91.554278 
L 269.666431 86.232038 
L 270.317041 85.859482 
L 270.967652 98.419968 
L 271.618262 96.503962 
L 272.268872 93.204173 
L 272.919483 97.249075 
L 273.570093 97.249075 
L 274.220703 102.730982 
L 274.871314 91.447834 
L 275.521924 91.234944 
L 276.172534 104.22121 
L 276.823144 86.285261 
L 277.473755 87.722266 
L 278.124365 103.529318 
L 278.774975 86.977152 
L 279.425586 102.411648 
L 280.076196 97.036186 
L 280.726806 92.938061 
L 281.377417 92.139725 
L 282.028027 114.333466 
L 282.678637 92.299392 
L 283.329248 87.296486 
L 283.979858 97.887744 
L 284.630468 86.71104 
L 285.281079 92.725171 
L 285.931689 91.607501 
L 286.582299 92.565504 
L 287.232909 98.845747 
L 287.88352 92.03328 
L 288.53413 102.571315 
L 289.835351 94.321843 
L 290.485961 114.706022 
L 291.136571 105.604992 
L 291.787182 103.156762 
L 292.437792 92.565504 
L 293.088402 104.114765 
L 293.739013 88.467379 
L 294.389623 92.352614 
L 295.040233 104.487322 
L 295.690844 86.178816 
L 296.992064 109.33056 
L 297.642674 90.755942 
L 298.293285 102.358426 
L 298.943895 103.901875 
L 299.594505 87.402931 
L 300.245116 85.912704 
L 300.895726 97.994189 
L 301.546336 97.302298 
L 302.196947 86.92393 
L 303.498167 96.131405 
L 304.148778 92.299392 
L 304.799388 86.444928 
L 305.449998 98.366746 
L 306.100608 93.949286 
L 306.751219 87.083597 
L 307.401829 102.943872 
L 308.052439 102.89065 
L 308.70305 92.192947 
L 309.35366 98.68608 
L 310.00427 92.725171 
L 310.654881 97.994189 
L 311.305491 91.234944 
L 311.956101 98.366746 
L 312.606712 99.324749 
L 313.257322 92.991283 
L 313.907932 101.879424 
L 314.558543 87.136819 
L 315.209153 86.71104 
L 315.859763 109.490227 
L 316.510373 104.274432 
L 317.160984 97.35552 
L 317.811594 87.988378 
L 318.462204 103.742208 
L 319.112815 97.674854 
L 319.763425 97.089408 
L 320.414035 87.669043 
L 321.064646 104.061542 
L 321.715256 93.204173 
L 322.365866 101.772979 
L 323.016477 98.047411 
L 323.667087 93.257395 
L 324.317697 92.405837 
L 324.968308 103.848653 
L 325.618918 97.621632 
L 326.269528 86.019149 
L 326.920138 113.960909 
L 327.570749 112.896461 
L 328.221359 114.067354 
L 328.871969 92.565504 
L 329.52258 92.03328 
L 330.17319 98.739302 
L 330.8238 102.198758 
L 331.474411 107.680666 
L 332.125021 97.887744 
L 332.775631 92.725171 
L 333.426242 96.982963 
L 334.727462 101.879424 
L 335.378073 97.302298 
L 336.028683 86.817485 
L 336.679293 93.097728 
L 337.329903 114.706022 
L 337.980514 115.610803 
L 338.631124 103.529318 
L 339.281734 121.571712 
L 339.932345 109.54345 
L 340.582955 93.683174 
L 341.233565 92.139725 
L 341.884176 103.476096 
L 342.534786 103.955098 
L 343.185396 108.372557 
L 343.836007 92.671949 
L 344.486617 114.546355 
L 345.137227 104.167987 
L 345.787837 87.190042 
L 346.438448 93.470285 
L 347.089058 103.156762 
L 347.739668 109.170893 
L 348.390279 114.120576 
L 349.040889 109.277338 
L 349.691499 93.683174 
L 350.34211 97.515187 
L 350.99272 97.834522 
L 351.64333 96.397517 
L 352.293941 98.313523 
L 352.944551 92.192947 
L 353.595161 102.358426 
L 354.245772 103.582541 
L 354.896382 103.529318 
L 355.546992 91.341389 
L 356.197602 93.257395 
L 356.848213 97.515187 
L 357.498823 92.299392 
L 358.149433 93.789619 
L 358.800044 88.148045 
L 359.450654 97.14263 
L 360.101264 86.178816 
L 361.402485 107.946778 
L 362.053095 92.618726 
L 362.703706 96.02496 
L 363.354316 102.837427 
L 364.004926 92.725171 
L 364.655537 92.086502 
L 365.306147 93.310618 
L 365.956757 108.638669 
L 366.607367 109.224115 
L 367.257978 109.490227 
L 367.908588 109.170893 
L 368.559198 98.792525 
L 369.209809 103.156762 
L 369.860419 91.82039 
L 370.511029 108.479002 
L 371.16164 110.128896 
L 371.81225 98.845747 
L 372.46286 91.926835 
L 373.113471 86.92393 
L 373.764081 103.529318 
L 374.414691 92.671949 
L 375.065302 96.02496 
L 375.715912 97.302298 
L 376.366522 99.111859 
L 377.017132 93.257395 
L 377.667743 120.773376 
L 378.318353 98.207078 
L 378.968963 102.997094 
L 379.619574 123.594163 
L 380.270184 91.926835 
L 380.920794 97.994189 
L 381.571405 102.624538 
L 382.222015 85.753037 
L 382.872625 86.232038 
L 383.523236 97.515187 
L 384.173846 91.554278 
L 384.824456 91.288166 
L 385.475066 92.831616 
L 386.125677 102.571315 
L 387.426897 92.086502 
L 388.077508 92.884838 
L 388.728118 103.263206 
L 389.378728 91.022054 
L 390.029339 102.784205 
L 390.679949 109.862784 
L 391.330559 87.083597 
L 391.98117 96.610406 
L 392.63178 91.554278 
L 393.28239 97.834522 
L 393.933001 96.663629 
L 394.583611 97.621632 
L 395.234221 103.422874 
L 395.884831 97.728077 
L 396.535442 86.71104 
L 397.186052 85.16759 
L 397.836662 98.47319 
L 398.487273 85.59337 
L 398.487273 85.59337 
" style="fill:none;stroke:#2ca02c;stroke-linecap:square;stroke-width:1.5;"/>
   </g>
   <g id="patch_3">
    <path d="M 57.6 307.584 
L 57.6 41.472 
" style="fill:none;stroke:#000000;stroke-linecap:square;stroke-linejoin:miter;stroke-width:0.8;"/>
   </g>
   <g id="patch_4">
    <path d="M 414.72 307.584 
L 414.72 41.472 
" style="fill:none;stroke:#000000;stroke-linecap:square;stroke-linejoin:miter;stroke-width:0.8;"/>
   </g>
   <g id="patch_5">
    <path d="M 57.6 307.584 
L 414.72 307.584 
" style="fill:none;stroke:#000000;stroke-linecap:square;stroke-linejoin:miter;stroke-width:0.8;"/>
   </g>
   <g id="patch_6">
    <path d="M 57.6 41.472 
L 414.72 41.472 
" style="fill:none;stroke:#000000;stroke-linecap:square;stroke-linejoin:miter;stroke-width:0.8;"/>
   </g>
   <g id="legend_1">
    <g id="patch_7">
     <path d="M 297.9575 302.584 
L 407.72 302.584 
Q 409.72 302.584 409.72 300.584 
L 409.72 257.549625 
Q 409.72 255.549625 407.72 255.549625 
L 297.9575 255.549625 
Q 295.9575 255.549625 295.9575 257.549625 
L 295.9575 300.584 
Q 295.9575 302.584 297.9575 302.584 
z
" style="fill:#ffffff;opacity:0.8;stroke:#cccccc;stroke-linejoin:miter;"/>
    </g>
    <g id="line2d_16">
     <path d="M 299.9575 263.648062 
L 319.9575 263.648062 
" style="fill:none;stroke:#1f77b4;stroke-linecap:square;stroke-width:1.5;"/>
    </g>
    <g id="line2d_17"/>
    <g id="text_15">
     <!-- Sarsa -->
     <g transform="translate(327.9575 267.148062)scale(0.1 -0.1)">
      <use xlink:href="#DejaVuSans-53"/>
      <use x="63.476562" xlink:href="#DejaVuSans-61"/>
      <use x="124.755859" xlink:href="#DejaVuSans-72"/>
      <use x="165.869141" xlink:href="#DejaVuSans-73"/>
      <use x="217.96875" xlink:href="#DejaVuSans-61"/>
     </g>
    </g>
    <g id="line2d_18">
     <path d="M 299.9575 278.326188 
L 319.9575 278.326188 
" style="fill:none;stroke:#ff7f0e;stroke-linecap:square;stroke-width:1.5;"/>
    </g>
    <g id="line2d_19"/>
    <g id="text_16">
     <!-- Q-Learning -->
     <g transform="translate(327.9575 281.826188)scale(0.1 -0.1)">
      <defs>
       <path d="M 2522 4238 
Q 1834 4238 1429 3725 
Q 1025 3213 1025 2328 
Q 1025 1447 1429 934 
Q 1834 422 2522 422 
Q 3209 422 3611 934 
Q 4013 1447 4013 2328 
Q 4013 3213 3611 3725 
Q 3209 4238 2522 4238 
z
M 3406 84 
L 4238 -825 
L 3475 -825 
L 2784 -78 
Q 2681 -84 2626 -87 
Q 2572 -91 2522 -91 
Q 1538 -91 948 567 
Q 359 1225 359 2328 
Q 359 3434 948 4092 
Q 1538 4750 2522 4750 
Q 3503 4750 4090 4092 
Q 4678 3434 4678 2328 
Q 4678 1516 4351 937 
Q 4025 359 3406 84 
z
" id="DejaVuSans-51" transform="scale(0.015625)"/>
       <path d="M 313 2009 
L 1997 2009 
L 1997 1497 
L 313 1497 
L 313 2009 
z
" id="DejaVuSans-2d" transform="scale(0.015625)"/>
       <path d="M 628 4666 
L 1259 4666 
L 1259 531 
L 3531 531 
L 3531 0 
L 628 0 
L 628 4666 
z
" id="DejaVuSans-4c" transform="scale(0.015625)"/>
      </defs>
      <use xlink:href="#DejaVuSans-51"/>
      <use x="81.460938" xlink:href="#DejaVuSans-2d"/>
      <use x="117.544922" xlink:href="#DejaVuSans-4c"/>
      <use x="171.507812" xlink:href="#DejaVuSans-65"/>
      <use x="233.03125" xlink:href="#DejaVuSans-61"/>
      <use x="294.310547" xlink:href="#DejaVuSans-72"/>
      <use x="333.673828" xlink:href="#DejaVuSans-6e"/>
      <use x="397.052734" xlink:href="#DejaVuSans-69"/>
      <use x="424.835938" xlink:href="#DejaVuSans-6e"/>
      <use x="488.214844" xlink:href="#DejaVuSans-67"/>
     </g>
    </g>
    <g id="line2d_20">
     <path d="M 299.9575 293.004312 
L 319.9575 293.004312 
" style="fill:none;stroke:#2ca02c;stroke-linecap:square;stroke-width:1.5;"/>
    </g>
    <g id="line2d_21"/>
    <g id="text_17">
     <!-- Expected Sarsa -->
     <g transform="translate(327.9575 296.504312)scale(0.1 -0.1)">
      <defs>
       <path d="M 3513 3500 
L 2247 1797 
L 3578 0 
L 2900 0 
L 1881 1375 
L 863 0 
L 184 0 
L 1544 1831 
L 300 3500 
L 978 3500 
L 1906 2253 
L 2834 3500 
L 3513 3500 
z
" id="DejaVuSans-78" transform="scale(0.015625)"/>
       <path d="M 3122 3366 
L 3122 2828 
Q 2878 2963 2633 3030 
Q 2388 3097 2138 3097 
Q 1578 3097 1268 2742 
Q 959 2388 959 1747 
Q 959 1106 1268 751 
Q 1578 397 2138 397 
Q 2388 397 2633 464 
Q 2878 531 3122 666 
L 3122 134 
Q 2881 22 2623 -34 
Q 2366 -91 2075 -91 
Q 1284 -91 818 406 
Q 353 903 353 1747 
Q 353 2603 823 3093 
Q 1294 3584 2113 3584 
Q 2378 3584 2631 3529 
Q 2884 3475 3122 3366 
z
" id="DejaVuSans-63" transform="scale(0.015625)"/>
       <path d="M 1172 4494 
L 1172 3500 
L 2356 3500 
L 2356 3053 
L 1172 3053 
L 1172 1153 
Q 1172 725 1289 603 
Q 1406 481 1766 481 
L 2356 481 
L 2356 0 
L 1766 0 
Q 1100 0 847 248 
Q 594 497 594 1153 
L 594 3053 
L 172 3053 
L 172 3500 
L 594 3500 
L 594 4494 
L 1172 4494 
z
" id="DejaVuSans-74" transform="scale(0.015625)"/>
      </defs>
      <use xlink:href="#DejaVuSans-45"/>
      <use x="63.183594" xlink:href="#DejaVuSans-78"/>
      <use x="122.363281" xlink:href="#DejaVuSans-70"/>
      <use x="185.839844" xlink:href="#DejaVuSans-65"/>
      <use x="247.363281" xlink:href="#DejaVuSans-63"/>
      <use x="302.34375" xlink:href="#DejaVuSans-74"/>
      <use x="341.552734" xlink:href="#DejaVuSans-65"/>
      <use x="403.076172" xlink:href="#DejaVuSans-64"/>
      <use x="466.552734" xlink:href="#DejaVuSans-20"/>
      <use x="498.339844" xlink:href="#DejaVuSans-53"/>
      <use x="561.816406" xlink:href="#DejaVuSans-61"/>
      <use x="623.095703" xlink:href="#DejaVuSans-72"/>
      <use x="664.208984" xlink:href="#DejaVuSans-73"/>
      <use x="716.308594" xlink:href="#DejaVuSans-61"/>
     </g>
    </g>
   </g>
  </g>
 </g>
 <defs>
  <clipPath id="p639a02db3b">
   <rect height="266.112" width="357.12" x="57.6" y="41.472"/>
  </clipPath>
 </defs>
</svg>
